<?xml version="1.0" encoding="UTF-8" standalone="no"?>
<svg
   width="57.046879pt"
   height="60.519531pt"
   viewBox="0 0 57.046879 60.51953"
   version="1.1"
   id="svg47913"
   sodipodi:docname="台灣玻璃.svg"
   inkscape:version="1.2.2 (732a01da63, 2022-12-09)"
   xmlns:inkscape="http://www.inkscape.org/namespaces/inkscape"
   xmlns:sodipodi="http://sodipodi.sourceforge.net/DTD/sodipodi-0.dtd"
   xmlns="http://www.w3.org/2000/svg"
   xmlns:svg="http://www.w3.org/2000/svg">
  <sodipodi:namedview
     id="namedview47915"
     pagecolor="#ffffff"
     bordercolor="#000000"
     borderopacity="0.25"
     inkscape:showpageshadow="2"
     inkscape:pageopacity="0.0"
     inkscape:pagecheckerboard="0"
     inkscape:deskcolor="#d1d1d1"
     inkscape:document-units="pt"
     showgrid="false"
     inkscape:zoom="4.0718545"
     inkscape:cx="-12.770594"
     inkscape:cy="36.22428"
     inkscape:window-width="1920"
     inkscape:window-height="991"
     inkscape:window-x="-9"
     inkscape:window-y="-9"
     inkscape:window-maximized="1"
     inkscape:current-layer="svg47913" />
  <defs
     id="defs47855">
    <g
       id="g47853">
      <g
         id="glyph-0-0">
        <path
           d="M 6,0 V -30 H 30 V 0 Z m 0.75,-0.75 h 22.5 v -28.5 H 6.75 Z m 0,0"
           id="path47792" />
      </g>
      <g
         id="glyph-0-1">
        <path
           d="M 5.5625,-23.671875 H 2.25 c 0.09375,-3.40625 1.226563,-6.203125 3.40625,-8.390625 2.1875,-2.1875 4.878906,-3.28125 8.078125,-3.28125 3.175781,0 5.742188,1.027344 7.703125,3.078125 1.957031,2.042969 2.9375,4.453125 2.9375,7.234375 0,1.949219 -0.46875,3.78125 -1.40625,5.5 -0.9375,1.710937 -2.757812,4.023437 -5.453125,6.9375 L 8.9375,-3.328125 H 24.84375 V 0 H 1.4375 l 13.171875,-14.234375 c 2.664063,-2.851563 4.398438,-4.972656 5.203125,-6.359375 0.8125,-1.382813 1.21875,-2.84375 1.21875,-4.375 0,-1.9375 -0.726562,-3.601563 -2.171875,-5 -1.449219,-1.394531 -3.21875,-2.09375 -5.3125,-2.09375 -2.199219,0 -4.03125,0.734375 -5.5,2.203125 -1.460937,1.46875 -2.289062,3.53125 -2.484375,6.1875 z m 0,0"
           id="path47795" />
      </g>
      <g
         id="glyph-0-2">
        <path
           d="m 1.53125,-17.234375 c 0,-4.539063 0.484375,-8.050781 1.453125,-10.53125 0.976563,-2.488281 2.359375,-4.375 4.140625,-5.65625 1.78125,-1.28125 3.773438,-1.921875 5.984375,-1.921875 2.226563,0 4.25,0.648437 6.0625,1.9375 1.8125,1.28125 3.242188,3.214844 4.296875,5.796875 1.0625,2.574219 1.59375,6.03125 1.59375,10.375 0,4.335937 -0.523437,7.78125 -1.5625,10.34375 -1.042969,2.5625 -2.480469,4.5 -4.3125,5.8125 C 17.363281,0.222656 15.335938,0.875 13.109375,0.875 10.898438,0.875 8.910156,0.238281 7.140625,-1.03125 5.378906,-2.300781 4.003906,-4.1875 3.015625,-6.6875 2.023438,-9.195313 1.53125,-12.710938 1.53125,-17.234375 Z m 3.25,0.07813 c 0,3.886719 0.347656,6.828125 1.046875,8.828125 0.695313,1.992187 1.722656,3.5 3.078125,4.53125 1.363281,1.03125 2.800781,1.546875 4.3125,1.546875 1.53125,0 2.957031,-0.503906 4.28125,-1.515625 1.332031,-1.007813 2.34375,-2.519531 3.03125,-4.53125 0.863281,-2.457031 1.296875,-5.410156 1.296875,-8.859375 0,-3.46875 -0.386719,-6.304688 -1.15625,-8.515625 -0.761719,-2.21875 -1.820312,-3.835938 -3.171875,-4.859375 -1.355469,-1.019531 -2.78125,-1.53125 -4.28125,-1.53125 -1.53125,0 -2.96875,0.511719 -4.3125,1.53125 C 7.5625,-29.507813 6.535156,-28 5.828125,-26 5.128906,-24.007813 4.78125,-21.0625 4.78125,-17.15625 Z m 0,0"
           id="path47798" />
      </g>
      <g
         id="glyph-0-3">
        <path
           d="M 8.890625,-34.484375 H 15.65625 V 0 h -3.421875 v -31.109375 h -5.40625 z m 0,0"
           id="path47801" />
      </g>
      <g
         id="glyph-1-0">
        <path
           d="m 3.59375,4.3125 h 28.8125 v -36 H 3.59375 Z M 18,-15.15625 6.546875,-29.875 h 22.90625 z m 1.15625,1.46875 11.4375,-14.71875 V 1.046875 Z M 6.546875,2.515625 18,-12.203125 29.453125,2.515625 Z M 5.40625,-28.40625 16.84375,-13.6875 5.40625,1.046875 Z m 0,0"
           id="path47804" />
      </g>
      <g
         id="glyph-1-1">
        <path
           d="m 24.625,-25.421875 c -3.03125,-1.65625 -8.859375,-3.59375 -13.25,-4.640625 l -1.296875,2.203125 C 14.546875,-26.75 20.34375,-24.59375 23.25,-22.9375 Z m -12.3125,9.515625 -0.46875,0.109375 H 2.125 V -13.25 h 8.5625 c -1.796875,5.265625 -5.328125,9.390625 -9.28125,11.734375 0.609375,0.4375 1.6875,1.4375 2.078125,2.015625 4.609375,-2.953125 8.75,-8.28125 10.59375,-15.625 z m 18.609375,-4.25 c -2.078125,2.34375 -5.46875,5.390625 -8.3125,7.5625 -1.296875,-2.3125 -2.3125,-4.828125 -3.09375,-7.5 V -22.75 H 6.796875 v 2.59375 h 9.90625 v 19.4375 c 0,0.578125 -0.21875,0.75 -0.859375,0.796875 C 15.265625,0.109375 13.140625,0.109375 10.9375,0 c 0.4375,0.75 0.875,1.9375 0.984375,2.65625 2.984375,0 4.890625,-0.03125 6.046875,-0.453125 1.140625,-0.4375 1.546875,-1.265625 1.546875,-2.890625 v -12.734375 c 2.84375,6.359375 7.15625,11.21875 13.203125,13.859375 0.40625,-0.765625 1.265625,-1.8125 1.84375,-2.34375 -4.46875,-1.6875 -8.03125,-4.75 -10.6875,-8.71875 2.984375,-2.078125 6.65625,-5.171875 9.46875,-7.8125 z m 0,0"
           id="path47807" />
      </g>
      <g
         id="glyph-1-2">
        <path
           d="m 22.421875,-24.34375 h -7.65625 v 1.8125 H 32.40625 v -1.8125 H 25.0625 v -1.9375 h 8.78125 v -1.875 H 25.0625 v -1.9375 h -2.640625 v 1.9375 H 13.25 v 1.875 h 9.171875 z m -6.65625,5.078125 h 4.078125 v 2.953125 h -4.078125 z m 15.40625,2.953125 H 27.75 v -2.953125 h 3.421875 z m -9.25,0 v -2.953125 h 3.75 V -16.3125 Z M 13.5,-14.46875 H 33.546875 V -21.0625 H 13.5 Z m 0.07813,5.65625 c -0.265625,-1.921875 -1.125,-5.125 -2.015625,-7.609375 l -1.921875,0.46875 c 0.40625,1.078125 0.734375,2.34375 1.046875,3.5625 l -5.171875,0.65625 c 2.734375,-3.34375 5.390625,-7.5625 7.515625,-11.734375 l -2.125,-1.265625 c -0.75,1.625 -1.578125,3.3125 -2.515625,4.859375 l -3.53125,0.296875 c 1.875,-2.703125 3.671875,-6.234375 5.109375,-9.625 l -2.296875,-0.96875 C 6.375,-26.25 4.03125,-22.0625 3.3125,-21.03125 c -0.6875,1.09375 -1.265625,1.875 -1.84375,2.015625 0.265625,0.625 0.65625,1.765625 0.796875,2.234375 0.46875,-0.25 1.21875,-0.359375 4.796875,-0.78125 -1.265625,1.96875 -2.34375,3.515625 -2.890625,4.140625 -1,1.359375 -1.765625,2.265625 -2.484375,2.40625 C 1.984375,-10.375 2.375,-9.21875 2.484375,-8.671875 3.09375,-9.03125 4.21875,-9.25 11.203125,-10.328125 11.375,-9.578125 11.484375,-8.8125 11.5625,-8.25 Z M 3.125,-7.125 c -0.3125,3.09375 -0.890625,6.546875 -1.796875,8.890625 0.578125,0.171875 1.625,0.5 2.09375,0.71875 0.796875,-2.296875 1.4375,-5.9375 1.875,-9.25 z m 3.390625,0.171875 C 6.953125,-4.3125 7.34375,-0.90625 7.375,1.375 L 9.4375,1.015625 C 9.328125,-1.265625 8.890625,-4.640625 8.453125,-7.265625 Z M 9.75,-7.59375 c 0.6875,2.125 1.515625,4.890625 1.84375,6.734375 l 1.875,-0.609375 c -0.359375,-1.765625 -1.1875,-4.546875 -1.984375,-6.671875 z m 7.3125,1.984375 H 29.875 v 1.65625 H 17.0625 Z m 0,-2.84375 H 29.875 V -6.90625 H 17.0625 Z m 0,-2.8125 H 29.875 V -9.75 H 17.0625 Z m 15.34375,8.921875 v -10.546875 h -17.75 V -2.34375 h 5.578125 C 18.28125,-1.296875 14.875,0.140625 12.53125,1.015625 c 0.390625,0.53125 0.859375,1.328125 1.109375,1.90625 2.453125,-0.984375 5.875,-2.375 8.609375,-3.640625 l -1.90625,-1.625 H 26.5 L 25.59375,-0.75 c 2.671875,1.078125 5.65625,2.484375 7.5625,3.40625 L 34.265625,0.75 C 32.4375,-0.109375 29.625,-1.375 26.96875,-2.34375 Z m 0,0"
           id="path47810" />
      </g>
      <g
         id="glyph-1-3">
        <path
           d="m 6.84375,-7.5625 c 0.171875,-1.15625 0.359375,-2.453125 0.53125,-3.703125 h 7.59375 v -8 H 9.390625 c 3.203125,-2.15625 5.984375,-5 7.5625,-8.59375 l -1.65625,-0.875 -0.46875,0.109375 h -9.75 v 2.203125 h 8.34375 c -0.890625,1.359375 -2.078125,2.65625 -3.453125,3.8125 C 8.921875,-23.6875 7.15625,-24.953125 5.6875,-25.8125 l -1.546875,1.46875 c 1.375,0.828125 2.984375,2.09375 4.0625,3.109375 -2.1875,1.46875 -4.671875,2.65625 -7.09375,3.375 0.515625,0.46875 1.15625,1.40625 1.453125,1.984375 1.359375,-0.4375 2.6875,-1.015625 3.984375,-1.6875 v 0.421875 H 12.5625 v 3.78125 h -7.125 c -0.328125,2.5625 -0.828125,5.765625 -1.265625,7.890625 h 8.25 C 12.09375,-2.046875 11.703125,-0.578125 11.15625,-0.109375 10.875,0.1875 10.515625,0.21875 9.859375,0.21875 9.1875,0.21875 7.203125,0.1875 5.25,0 c 0.40625,0.640625 0.765625,1.578125 0.796875,2.296875 1.9375,0.109375 3.859375,0.15625 4.75,0.078125 1.046875,-0.078125 1.765625,-0.28125 2.375,-0.90625 0.875,-0.828125 1.34375,-2.9375 1.765625,-7.953125 0.07813,-0.3125 0.109375,-1.078125 0.109375,-1.078125 z m 22.5625,-1.578125 -0.421875,0.109375 h -12.28125 v 1.9375 H 27.71875 C 26.8125,-5.609375 25.625,-4.3125 24.234375,-3.234375 22.109375,-4.46875 19.90625,-5.71875 18,-6.765625 l -1.296875,1.46875 c 1.765625,0.984375 3.75,2.171875 5.6875,3.3125 -2.1875,1.296875 -4.75,2.234375 -7.375,2.8125 0.46875,0.46875 0.96875,1.375 1.21875,1.984375 2.984375,-0.765625 5.796875,-1.875 8.25,-3.5 2.078125,1.296875 3.984375,2.5625 5.28125,3.53125 l 1.34375,-1.734375 C 29.875,0.21875 28.15625,-0.859375 26.25,-2.015625 28.265625,-3.75 29.875,-5.90625 30.890625,-8.53125 Z m 2.171875,-17.140625 c -1.1875,1.265625 -3.25,2.984375 -4.859375,4.171875 -0.984375,-0.671875 -1.875,-1.40625 -2.640625,-2.1875 1.625,-1.15625 3.640625,-2.703125 5.1875,-4.171875 L 27.28125,-29.875 c -1.109375,1.21875 -2.984375,2.90625 -4.53125,4.171875 -1.15625,-1.375 -2.09375,-2.8125 -2.8125,-4.359375 l -2.125,0.65625 c 1.875,4.09375 4.875,7.515625 8.578125,10 h -8 v 2.8125 c 0,1.71875 -0.5,3.671875 -3.34375,5.21875 0.5,0.328125 1.375,1.1875 1.734375,1.65625 3.15625,-1.84375 3.921875,-4.5 3.921875,-6.8125 V -17.25 h 4.890625 v 3.5 c 0,2.125 0.4375,2.984375 2.625,2.984375 h 2.953125 c 0.71875,0 1.4375,0 1.84375,-0.140625 -0.07813,-0.546875 -0.140625,-1.328125 -0.140625,-1.875 -0.46875,0.07813 -1.265625,0.109375 -1.734375,0.109375 H 28.46875 c -0.53125,0 -0.609375,-0.21875 -0.609375,-1.046875 v -4.75 c 1.59375,0.859375 3.3125,1.625 5.15625,2.15625 0.390625,-0.609375 1.046875,-1.578125 1.609375,-2.046875 -2.1875,-0.609375 -4.234375,-1.484375 -6.15625,-2.59375 1.65625,-1.078125 3.609375,-2.5625 5.078125,-3.953125 z m 0,0"
           id="path47813" />
      </g>
      <g
         id="glyph-1-4">
        <path
           d="m 29.265625,-26.0625 v 3.671875 H 7.84375 V -26.0625 Z m 2.671875,6.015625 v -8.359375 h -26.75 v 10.484375 c 0,5.75 -0.296875,13.703125 -3.890625,19.359375 C 1.9375,1.65625 3.125,2.375 3.640625,2.8125 7.3125,-3.0625 7.84375,-11.8125 7.84375,-17.921875 v -2.125 z m -15.015625,5.90625 h 7.15625 V -10.375 h -7.15625 z m 13.25,6.328125 c -1.328125,1.078125 -3.5625,2.515625 -5.375,3.59375 -1.1875,-1.109375 -2.109375,-2.40625 -2.875,-3.8125 H 34.09375 V -10.375 h -7.484375 v -3.765625 h 6.046875 v -2.3125 H 26.609375 V -19.6875 h -2.53125 v 3.234375 h -7.15625 V -19.6875 H 14.40625 v 3.234375 h -5.375 v 2.3125 h 5.375 V -10.375 H 8.0625 v 2.34375 h 3.890625 v 5.828125 c 0,1.59375 -1.078125,2.390625 -1.734375,2.75 0.359375,0.5 0.9375,1.609375 1.046875,2.265625 0.6875,-0.46875 1.84375,-0.796875 10.84375,-3 -0.07813,-0.53125 0,-1.578125 0.109375,-2.21875 l -7.75,1.71875 V -8.03125 H 19.4375 C 21.890625,-2.484375 26.453125,1.1875 32.828125,2.8125 33.1875,2.09375 33.875,1.109375 34.484375,0.578125 31.3125,-0.078125 28.65625,-1.1875 26.453125,-2.8125 c 1.84375,-0.96875 4.03125,-2.328125 5.734375,-3.625 z m 0,0"
           id="path47816" />
      </g>
      <g
         id="glyph-1-5">
        <path
           d="m 17.359375,-20.515625 h -6.34375 V -24.125 h 5.4375 v -2.296875 h -5.4375 V -30.0625 H 8.53125 v 3.640625 H 2.875 V -24.125 h 5.65625 v 3.609375 h -6.6875 v 2.328125 h 15.515625 z m -6.34375,9.75 h 5.6875 v -2.34375 h -3.59375 c 0.78125,-1.359375 1.65625,-2.984375 2.40625,-4.453125 l -2.296875,-0.625 c -0.578125,1.453125 -1.5625,3.53125 -2.484375,5.078125 H 6.265625 L 8.0625,-13.75 c -0.25,-1.1875 -1,-2.984375 -1.828125,-4.28125 L 4.25,-17.5 c 0.71875,1.375 1.46875,3.171875 1.6875,4.390625 H 2.59375 v 2.34375 h 5.9375 V -6.875 H 1.796875 v 2.296875 H 8.53125 V 2.625 h 2.484375 v -7.203125 h 6.40625 V -6.875 h -6.40625 z m 10.15625,-3.34375 h 0.3125 c 1.09375,3.640625 2.59375,7.046875 4.578125,9.96875 -1.40625,1.875 -3.015625,3.5 -4.890625,4.75 z m 9.390625,0 c -0.640625,2.703125 -1.65625,5.359375 -3.09375,7.765625 -1.546875,-2.328125 -2.8125,-5 -3.671875,-7.765625 z m 1.265625,-2.34375 -0.4375,0.109375 h -10.21875 v -9.6875 h 9 v 4.4375 c 0,0.421875 -0.140625,0.53125 -0.71875,0.5625 -0.546875,0.04687 -2.421875,0.04687 -4.65625,-0.03125 0.359375,0.71875 0.734375,1.625 0.828125,2.375 2.75,0 4.546875,-0.03125 5.65625,-0.421875 1.125,-0.40625 1.375,-1.09375 1.375,-2.453125 v -6.90625 H 18.71875 V 2.703125 h 2.453125 v -1.1875 c 0.46875,0.390625 0.890625,0.890625 1.1875,1.328125 2.015625,-1.296875 3.734375,-2.984375 5.25,-4.890625 1.625,1.859375 3.390625,3.453125 5.40625,4.5625 0.421875,-0.671875 1.21875,-1.65625 1.828125,-2.15625 -2.125,-1.046875 -4.0625,-2.59375 -5.71875,-4.53125 2.15625,-3.453125 3.59375,-7.421875 4.390625,-11.671875 z m 0,0"
           id="path47819" />
      </g>
      <g
         id="glyph-1-6">
        <path
           d="m 26.890625,-8.3125 v 6.875 H 9.4375 v -6.875 z M 6.765625,3.09375 H 9.4375 V 1.078125 H 26.890625 V 3.03125 H 29.59375 V -10.796875 H 6.765625 Z m 13.4375,-19.9375 V -22.5 h 10.9375 v -2.453125 h -10.9375 V -30.125 h -2.78125 v 5.171875 H 9.90625 c 0.640625,-1.359375 1.25,-2.765625 1.75,-4.203125 L 9,-29.765625 c -1.328125,3.984375 -3.59375,8.09375 -6.234375,10.65625 0.6875,0.359375 1.875,1.078125 2.421875,1.4375 C 6.375,-18.96875 7.53125,-20.65625 8.609375,-22.5 h 8.8125 v 5.65625 H 2.34375 v 2.515625 h 31.453125 v -2.515625 z m 0,0"
           id="path47822" />
      </g>
      <g
         id="glyph-1-7">
        <path
           d="M 27,-6.4375 V -4.25 H 9.28125 V -6.4375 Z M 9.28125,-0.21875 V -2.515625 H 27 V -0.21875 Z M 6.703125,2.84375 H 9.28125 V 1.65625 H 27 v 1.109375 h 2.65625 V -8.28125 H 6.703125 Z M 19.1875,-21.8125 h 7.671875 v 2.125 H 19.1875 Z m 0,-4.03125 h 7.671875 v 2.015625 H 19.1875 Z m 0,13.890625 v -2.125 H 31.46875 V -15.90625 H 19.1875 v -1.984375 H 29.484375 V -21.8125 H 33.875 v -2.015625 h -4.390625 v -3.8125 H 19.1875 v -2.53125 h -2.625 v 2.53125 H 5.9375 v 1.796875 h 10.625 v 2.015625 H 2.15625 V -21.8125 H 16.5625 v 2.125 H 5.546875 v 1.796875 H 16.5625 v 1.984375 H 4.53125 v 1.828125 H 16.5625 v 2.125 H 2.09375 v 1.984375 h 31.8125 v -1.984375 z m 0,0"
           id="path47825" />
      </g>
      <g
         id="glyph-2-0">
        <path
           d="m 2.0625,0 v -10.3125 h 8.25 V 0 Z M 2.328125,-0.265625 H 10.0625 V -10.0625 H 2.328125 Z m 0,0"
           id="path47828" />
      </g>
      <g
         id="glyph-2-1">
        <path
           d="m 1.453125,-11.84375 h 6.78125 v 1.15625 h -5.59375 v 3.703125 H 8.1875 V -5.8125 H 2.640625 v 4.640625 H 8.1875 V 0 H 1.453125 Z m 0,0"
           id="path47831" />
      </g>
      <g
         id="glyph-2-2">
        <path
           d="m 0.21875,-2.203125 1,-0.609375 c 0.707031,1.304687 1.53125,1.953125 2.46875,1.953125 0.394531,0 0.765625,-0.085938 1.109375,-0.265625 0.351563,-0.1875 0.617188,-0.4375 0.796875,-0.75 0.1875,-0.3125 0.28125,-0.644531 0.28125,-1 0,-0.394531 -0.136719,-0.78125 -0.40625,-1.15625 C 5.101563,-4.5625 4.425781,-5.195313 3.4375,-5.9375 c -0.992187,-0.75 -1.605469,-1.289063 -1.84375,-1.625 -0.417969,-0.550781 -0.625,-1.15625 -0.625,-1.8125 0,-0.507813 0.117188,-0.976563 0.359375,-1.40625 0.25,-0.425781 0.597656,-0.757813 1.046875,-1 0.445313,-0.25 0.9375,-0.375 1.46875,-0.375 0.5625,0 1.082031,0.140625 1.5625,0.421875 0.488281,0.28125 1.003906,0.792969 1.546875,1.53125 L 5.984375,-9.46875 C 5.535156,-10.0625 5.15625,-10.453125 4.84375,-10.640625 c -0.3125,-0.1875 -0.65625,-0.28125 -1.03125,-0.28125 -0.46875,0 -0.859375,0.148437 -1.171875,0.4375 -0.304687,0.28125 -0.453125,0.636719 -0.453125,1.0625 0,0.261719 0.050781,0.511719 0.15625,0.75 0.113281,0.242187 0.3125,0.507812 0.59375,0.796875 0.15625,0.148437 0.664063,0.542969 1.53125,1.1875 1.03125,0.75 1.734375,1.421875 2.109375,2.015625 0.382813,0.59375 0.578125,1.1875 0.578125,1.78125 0,0.855469 -0.328125,1.601562 -0.984375,2.234375 -0.648437,0.6367187 -1.4375,0.953125 -2.375,0.953125 -0.71875,0 -1.375,-0.195312 -1.96875,-0.578125 C 1.242188,-0.664063 0.707031,-1.304688 0.21875,-2.203125 Z m 0,0"
           id="path47834" />
      </g>
      <g
         id="glyph-2-3">
        <path
           d="m 12.875,-9.859375 -0.921875,0.875 c -0.65625,-0.65625 -1.382812,-1.148438 -2.171875,-1.484375 -0.78125,-0.332031 -1.546875,-0.5 -2.296875,-0.5 -0.929687,0 -1.8125,0.230469 -2.65625,0.6875 -0.84375,0.449219 -1.496094,1.0625 -1.953125,1.84375 -0.460937,0.78125 -0.6875,1.609375 -0.6875,2.484375 0,0.898437 0.238281,1.746094 0.71875,2.546875 0.476563,0.804687 1.132813,1.433594 1.96875,1.890625 0.84375,0.460937 1.769531,0.6875 2.78125,0.6875 1.21875,0 2.25,-0.34375 3.09375,-1.03125 0.84375,-0.6875 1.34375,-1.578125 1.5,-2.671875 H 8.46875 V -5.6875 h 5.109375 c -0.01172,1.835937 -0.558594,3.292969 -1.640625,4.375 -1.074219,1.074219 -2.511719,1.609375 -4.3125,1.609375 -2.199219,0 -3.933594,-0.742188 -5.203125,-2.234375 -0.992187,-1.15625 -1.484375,-2.488281 -1.484375,-4 0,-1.113281 0.28125,-2.15625 0.84375,-3.125 0.570313,-0.96875 1.347656,-1.722656 2.328125,-2.265625 0.976563,-0.550781 2.085938,-0.828125 3.328125,-0.828125 1.007813,0 1.957031,0.183594 2.84375,0.546875 0.882813,0.367187 1.75,0.949219 2.59375,1.75 z m 0,0"
           id="path47837" />
      </g>
      <g
         id="glyph-2-4" />
      <g
         id="glyph-2-5">
        <path
           d="m 1.5,-11.84375 h 2.375 c 1.3125,0 2.203125,0.05469 2.671875,0.15625 0.695313,0.15625 1.265625,0.5 1.703125,1.03125 0.445313,0.53125 0.671875,1.183594 0.671875,1.953125 0,0.648437 -0.152344,1.214844 -0.453125,1.703125 -0.304687,0.492187 -0.742187,0.859375 -1.3125,1.109375 -0.5625,0.25 -1.339844,0.375 -2.328125,0.375 L 9.09375,0 H 7.625 L 3.375,-5.515625 H 2.6875 V 0 H 1.5 Z m 1.1875,1.15625 v 4.03125 l 2.046875,0.015625 c 0.78125,0 1.359375,-0.070313 1.734375,-0.21875 0.382813,-0.15625 0.679688,-0.398438 0.890625,-0.734375 0.21875,-0.332031 0.328125,-0.703125 0.328125,-1.109375 0,-0.394531 -0.109375,-0.753906 -0.328125,-1.078125 -0.210937,-0.320313 -0.492187,-0.550781 -0.84375,-0.6875 C 6.171875,-10.613281 5.59375,-10.6875 4.78125,-10.6875 Z m 0,0"
           id="path47841" />
      </g>
      <g
         id="glyph-2-6">
        <path
           d="m 1.4375,-11.84375 h 2.359375 c 1.351563,0 2.265625,0.05859 2.734375,0.171875 0.675781,0.167969 1.226563,0.511719 1.65625,1.03125 0.4375,0.511719 0.65625,1.164062 0.65625,1.953125 0,0.78125 -0.214844,1.433594 -0.640625,1.953125 -0.417969,0.511719 -0.992187,0.855469 -1.71875,1.03125 -0.542969,0.125 -1.546875,0.1875 -3.015625,0.1875 H 2.625 V 0 H 1.4375 Z m 1.1875,1.140625 v 4.03125 l 2,0.03125 c 0.8125,0 1.40625,-0.070313 1.78125,-0.21875 0.375,-0.15625 0.664063,-0.394531 0.875,-0.71875 C 7.5,-7.910156 7.609375,-8.28125 7.609375,-8.6875 7.609375,-9.09375 7.5,-9.457031 7.28125,-9.78125 7.070313,-10.113281 6.789063,-10.347656 6.4375,-10.484375 c -0.355469,-0.144531 -0.929687,-0.21875 -1.71875,-0.21875 z m 0,0"
           id="path47844" />
      </g>
      <g
         id="glyph-2-7">
        <path
           d="m 7.09375,-12.15625 c 1.789063,0 3.289063,0.601562 4.5,1.796875 1.207031,1.199219 1.8125,2.671875 1.8125,4.421875 0,1.742187 -0.605469,3.214844 -1.8125,4.421875 -1.210937,1.210937 -2.679687,1.8125 -4.40625,1.8125 -1.761719,0 -3.246094,-0.597656 -4.453125,-1.796875 -1.210937,-1.207031 -1.8125,-2.664063 -1.8125,-4.375 0,-1.132813 0.273438,-2.1875 0.828125,-3.15625 0.550781,-0.976563 1.300781,-1.742188 2.25,-2.296875 0.957031,-0.550781 1.988281,-0.828125 3.09375,-0.828125 z m 0.046875,1.171875 c -0.875,0 -1.703125,0.230469 -2.484375,0.6875 -0.78125,0.449219 -1.398437,1.0625 -1.84375,1.84375 -0.4375,0.773437 -0.65625,1.632812 -0.65625,2.578125 0,1.40625 0.484375,2.59375 1.453125,3.5625 0.976563,0.96875 2.15625,1.453125 3.53125,1.453125 0.925781,0 1.78125,-0.21875 2.5625,-0.65625 0.78125,-0.445313 1.390625,-1.054688 1.828125,-1.828125 0.4375,-0.78125 0.65625,-1.644531 0.65625,-2.59375 0,-0.9375 -0.21875,-1.785156 -0.65625,-2.546875 -0.4375,-0.757813 -1.058594,-1.363281 -1.859375,-1.8125 -0.792969,-0.457031 -1.636719,-0.6875 -2.53125,-0.6875 z m 0,0"
           id="path47847" />
      </g>
      <g
         id="glyph-2-8">
        <path
           d="m 0.265625,-10.703125 v -1.140625 h 6.5 v 1.140625 H 4.125 V 0 H 2.921875 v -10.703125 z m 0,0"
           id="path47850" />
      </g>
    </g>
  </defs>
  <path
     fill-rule="nonzero"
     fill="#d0121b"
     fill-opacity="1"
     d="M 0,28.52734 H 57.04688 L 35.97266,7.45312 l -4.99219,4.99219 9.19141,9.19141 H 16.875 L 33.52344,5 l -5,-5 z m 57.04688,3.46485 H 0 L 28.52344,60.51953 Z M 16.875,38.88281 H 40.17188 L 28.52344,50.53516 Z m 0,0"
     id="path47907" />
</svg>
